<?xml version="1.0" encoding="utf-8"?>
<!-- Generator: Adobe Illustrator 25.4.1, SVG Export Plug-In . SVG Version: 6.00 Build 0)  -->
<svg version="1.1" id="Layer_1" xmlns="http://www.w3.org/2000/svg" xmlns:xlink="http://www.w3.org/1999/xlink" x="0px" y="0px"
	 viewBox="0 0 60 60" style="enable-background:new 0 0 60 60;" xml:space="preserve">
<style type="text/css">
	.st0{fill:#1E8BC4;}
	.st1{fill:#FFFFFF;}
</style>
<circle class="st0" cx="30" cy="30" r="30"/>
<g>
</g>
<g>
	<g>
		<path class="st1" d="M19.9,16.7L35,12.6l-0.8-1.6c-0.5-1.1-1.8-1.5-2.9-1l-13.6,6.7H19.9z"/>
		<path class="st1" d="M39.7,12.7c-0.2,0-0.4,0-0.6,0.1l-3.6,1l-10.9,3h12.3h5.4l-0.7-2.4C41.5,13.3,40.7,12.7,39.7,12.7z"/>
		<path class="st1" d="M44.7,18.2h-0.5h-0.7h-0.7h-5H19.3h-2.4h-2h-0.4h-1.3c-0.7,0-1.3,0.3-1.7,0.8c-0.2,0.2-0.3,0.5-0.4,0.8
			c0,0.2-0.1,0.4-0.1,0.6v0.3V23v21.1c0,1.2,1,2.1,2.1,2.1h31.5c1.2,0,2.1-1,2.1-2.1v-6H34.1c-2,0-3.6-1.6-3.6-3.6v-2v-0.7v-0.7
			v-1.5c0-1,0.4-1.9,1-2.5c0.6-0.6,1.3-1,2.2-1.1c0.1,0,0.3,0,0.4,0H45h0.7h0.7h0.5v-5.8C46.8,19.2,45.9,18.2,44.7,18.2z"/>
		<path class="st1" d="M48.3,28.2c-0.2-0.2-0.5-0.3-0.7-0.4c-0.2-0.1-0.4-0.1-0.7-0.1h-0.1h0h-0.7h-2.4h-9.6c-1.2,0-2.1,1-2.1,2.1
			v1.1v0.7v0.7v2.4c0,1.2,1,2.1,2.1,2.1h12.7h0.1c0.2,0,0.5,0,0.7-0.1c0.3-0.1,0.5-0.2,0.7-0.4c0.4-0.4,0.7-1,0.7-1.6v-4.7
			C49,29.1,48.7,28.6,48.3,28.2z M38.6,32.6c0,0.6-0.5,1.1-1.1,1.1h-0.7c-0.6,0-1.1-0.5-1.1-1.1v-0.7c0-0.3,0.2-0.6,0.4-0.8
			c0.2-0.1,0.4-0.2,0.7-0.2H37h0.5c0.6,0,1.1,0.5,1.1,1.1V32.6L38.6,32.6z"/>
	</g>
</g>
</svg>
